<?xml version="1.0" encoding="UTF-8" ?>
<svg xmlns="http://www.w3.org/2000/svg" xmlns:xlink="http://www.w3.org/1999/xlink" width="779pt" height="912pt" viewBox="0.00 0.00 779.14 912.00">
<g id="graph0" class="graph" transform="scale(1 1) rotate(0) translate(4 908)">
<title>%0</title>
<polygon fill="#ffffff" stroke="transparent" points="-4,4 -4,-908 775.136,-908 775.136,4 -4,4"/>
<text text-anchor="middle" x="385.568" y="-873" font-family="Helvetica,sans-Serif" font-size="30.00" fill="#000000">Red Hat OpenShift Data Science - Edge Demo Workflow</text>
<!-- model -->
<g id="node1" class="node">
<title>model</title>
<polygon fill="#d3d3d3" stroke="#000000" points="51.666,-683.5 51.666,-859.5 719.47,-859.5 719.47,-683.5 51.666,-683.5"/>
<text text-anchor="start" x="223.028" y="-829.5" font-family="Helvetica,sans-Serif" font-weight="bold" font-size="30.00" fill="#000000">1 - Build model</text>
<text text-anchor="start" x="423.053" y="-829.5" font-family="Helvetica,sans-Serif" font-size="30.00" fill="#000000">               </text>
<polyline fill="none" stroke="#000000" points="51.666,-815.5 719.47,-815.5 "/>
<text text-anchor="start" x="60.521" y="-784.5" font-family="Helvetica,sans-Serif" font-size="30.00" fill="#000000">a) RHODS Notebook builds model with pytorch.  </text>
<polyline fill="none" stroke="#000000" points="51.666,-771.5 719.47,-771.5 "/>
<text text-anchor="start" x="59.678" y="-740.5" font-family="Helvetica,sans-Serif" font-size="30.00" fill="#000000">b) RHODS Notebook saves model pytorch pt file.</text>
<polyline fill="none" stroke="#000000" points="51.666,-727.5 719.47,-727.5 "/>
<text text-anchor="start" x="59.666" y="-696.5" font-family="Helvetica,sans-Serif" font-size="30.00" fill="#000000">c) RHODS Notebook pushes pytorch pt file to git.</text>
</g>
<!-- container -->
<g id="node2" class="node">
<title>container</title>
<polygon fill="#d3d3d3" stroke="#000000" points="52.482,-426.5 52.482,-646.5 718.654,-646.5 718.654,-426.5 52.482,-426.5"/>
<text text-anchor="start" x="73.8215" y="-616.5" font-family="Helvetica,sans-Serif" font-weight="bold" font-size="30.00" fill="#000000">2 - Containerise model on hub cluster</text>
<text text-anchor="start" x="572.2595" y="-616.5" font-family="Helvetica,sans-Serif" font-size="30.00" fill="#000000">               </text>
<polyline fill="none" stroke="#000000" points="52.482,-602.5 718.654,-602.5 "/>
<text text-anchor="start" x="73.835" y="-571.5" font-family="Helvetica,sans-Serif" font-size="30.00" fill="#000000">a) Tekton build pipeline manually triggered.      </text>
<polyline fill="none" stroke="#000000" points="52.482,-558.5 718.654,-558.5 "/>
<text text-anchor="start" x="60.482" y="-527.5" font-family="Helvetica,sans-Serif" font-size="30.00" fill="#000000">b) Tekton Task clones codebase into workspace.</text>
<polyline fill="none" stroke="#000000" points="52.482,-514.5 718.654,-514.5 "/>
<text text-anchor="start" x="61.3475" y="-483.5" font-family="Helvetica,sans-Serif" font-size="30.00" fill="#000000">c) Tekton Task builds container image locally      </text>
<polyline fill="none" stroke="#000000" points="52.482,-470.5 718.654,-470.5 "/>
<text text-anchor="start" x="63.797" y="-439.5" font-family="Helvetica,sans-Serif" font-size="30.00" fill="#000000">d) Tekton Task pushes image to quay.                </text>
</g>
<!-- model&#45;&gt;container -->
<g id="edge1" class="edge">
<title>model-&gt;container</title>
<path fill="none" stroke="#000000" d="M385.568,-683.3261C385.568,-674.6204 385.568,-665.6853 385.568,-656.7291"/>
<polygon fill="#000000" stroke="#000000" points="389.0681,-656.6193 385.568,-646.6193 382.0681,-656.6194 389.0681,-656.6193"/>
</g>
<!-- gitops -->
<g id="node3" class="node">
<title>gitops</title>
<polygon fill="#d3d3d3" stroke="#000000" points="44.9985,-257.5 44.9985,-389.5 726.1375,-389.5 726.1375,-257.5 44.9985,-257.5"/>
<text text-anchor="start" x="109.646" y="-359.5" font-family="Helvetica,sans-Serif" font-weight="bold" font-size="30.00" fill="#000000">3 - Onboard edge device cluster</text>
<text text-anchor="start" x="536.435" y="-359.5" font-family="Helvetica,sans-Serif" font-size="30.00" fill="#000000">               </text>
<polyline fill="none" stroke="#000000" points="44.9985,-345.5 726.1375,-345.5 "/>
<text text-anchor="start" x="52.9985" y="-314.5" font-family="Helvetica,sans-Serif" font-size="30.00" fill="#000000">a) Tekton cluster add pipeline manually triggered .</text>
<polyline fill="none" stroke="#000000" points="44.9985,-301.5 726.1375,-301.5 "/>
<text text-anchor="start" x="56.285" y="-270.5" font-family="Helvetica,sans-Serif" font-size="30.00" fill="#000000">b) Remote edge cluster added to hub gitops.        </text>
</g>
<!-- container&#45;&gt;gitops -->
<g id="edge2" class="edge">
<title>container-&gt;gitops</title>
<path fill="none" stroke="#000000" d="M385.568,-426.2565C385.568,-417.2824 385.568,-408.3437 385.568,-399.6958"/>
<polygon fill="#000000" stroke="#000000" points="389.0681,-399.6928 385.568,-389.6928 382.0681,-399.6929 389.0681,-399.6928"/>
</g>
<!-- push -->
<g id="node4" class="node">
<title>push</title>
<polygon fill="#d3d3d3" stroke="#000000" points="23.3085,-.5 23.3085,-220.5 747.8275,-220.5 747.8275,-.5 23.3085,-.5"/>
<text text-anchor="start" x="104.6255" y="-190.5" font-family="Helvetica,sans-Serif" font-weight="bold" font-size="30.00" fill="#000000">4b - Push and run model at edge</text>
<text text-anchor="start" x="541.4555" y="-190.5" font-family="Helvetica,sans-Serif" font-size="30.00" fill="#000000">               </text>
<polyline fill="none" stroke="#000000" points="23.3085,-176.5 747.8275,-176.5 "/>
<text text-anchor="start" x="32.129" y="-145.5" font-family="Helvetica,sans-Serif" font-size="30.00" fill="#000000">a) Openshift gitops syncs model deployment to edge.</text>
<polyline fill="none" stroke="#000000" points="23.3085,-132.5 747.8275,-132.5 "/>
<text text-anchor="start" x="34.658" y="-101.5" font-family="Helvetica,sans-Serif" font-size="30.00" fill="#000000">b) Edge device cluster pulls new model image.          </text>
<polyline fill="none" stroke="#000000" points="23.3085,-88.5 747.8275,-88.5 "/>
<text text-anchor="start" x="31.3085" y="-57.5" font-family="Helvetica,sans-Serif" font-size="30.00" fill="#000000">c) New container starts up and becomes healthy.       </text>
<polyline fill="none" stroke="#000000" points="23.3085,-44.5 747.8275,-44.5 "/>
<text text-anchor="start" x="37.1435" y="-13.5" font-family="Helvetica,sans-Serif" font-size="30.00" fill="#000000">d) Model is serving via openshift route.                      </text>
</g>
<!-- gitops&#45;&gt;push -->
<g id="edge3" class="edge">
<title>gitops-&gt;push</title>
<path fill="none" stroke="#000000" d="M385.568,-257.273C385.568,-248.755 385.568,-239.8339 385.568,-230.7776"/>
<polygon fill="#000000" stroke="#000000" points="389.0681,-230.5095 385.568,-220.5096 382.0681,-230.5096 389.0681,-230.5095"/>
</g>
</g>
</svg>